<?xml version="1.0" encoding="UTF-8" standalone="no"?>
<!-- Created with Inkscape (http://www.inkscape.org/) -->

<svg
   xmlns:dc="http://purl.org/dc/elements/1.1/"
   xmlns:cc="http://creativecommons.org/ns#"
   xmlns:rdf="http://www.w3.org/1999/02/22-rdf-syntax-ns#"
   xmlns:svg="http://www.w3.org/2000/svg"
   xmlns="http://www.w3.org/2000/svg"
   xmlns:sodipodi="http://sodipodi.sourceforge.net/DTD/sodipodi-0.dtd"
   xmlns:inkscape="http://www.inkscape.org/namespaces/inkscape"
   width="512"
   height="512"
   viewBox="0 0 135.46666 135.46667"
   version="1.1"
   id="svg3751"
   inkscape:version="0.92.2 (5c3e80d, 2017-08-06)"
   sodipodi:docname="MinimizeBtn.svg">
  <defs
     id="defs3745" />
  <sodipodi:namedview
     id="base"
     pagecolor="#ffffff"
     bordercolor="#666666"
     borderopacity="1.0"
     inkscape:pageopacity="0.0"
     inkscape:pageshadow="2"
     inkscape:zoom="0.5"
     inkscape:cx="250"
     inkscape:cy="256"
     inkscape:document-units="mm"
     inkscape:current-layer="g4"
     showgrid="false"
     units="px"
     inkscape:window-width="1280"
     inkscape:window-height="971"
     inkscape:window-x="-8"
     inkscape:window-y="-8"
     inkscape:window-maximized="1" />
  <metadata
     id="metadata3748">
    <rdf:RDF>
      <cc:Work
         rdf:about="">
        <dc:format>image/svg+xml</dc:format>
        <dc:type
           rdf:resource="http://purl.org/dc/dcmitype/StillImage" />
        <dc:title></dc:title>
      </cc:Work>
    </rdf:RDF>
  </metadata>
  <g
     inkscape:label="Capa 1"
     inkscape:groupmode="layer"
     id="layer1"
     transform="translate(0,-161.53332)"
     style="display:none"
     sodipodi:insensitive="true">
    <path
       id="path3753"
       d="m 94.866151,222.57668 -4.816817,-4.81483 -12.340061,12.33842 -5.369707,-5.36971 12.340175,-12.34029 -4.816701,-4.8167 c 0,-2.07137 1.677535,-3.75078 3.750777,-3.75078 h 11.252334 c 2.073242,0 3.750779,1.67941 3.750779,3.75078 v 11.25233 c 0,2.07324 -1.677537,3.75078 -3.750779,3.75078 z m -37.507775,37.50777 c 0,2.07324 -1.677536,3.75078 -3.750778,3.75078 H 42.355266 c -2.073242,0 -3.750777,-1.67754 -3.750777,-3.75078 v -11.25233 c 0,-2.07324 1.677535,-3.75078 3.750777,-3.75078 l 4.816701,4.8167 12.340175,-12.34017 5.369707,5.3697 -12.340175,12.34393 z"
       inkscape:connector-curvature="0"
       style="stroke-width:0.11721178" />
  </g>
  <g
     inkscape:groupmode="layer"
     id="layer2"
     inkscape:label="Capa 2">
    <g
       id="g4"
       transform="matrix(0.22135076,0,0,0.22135076,0,5.0533334e-6)">
      <path
         inkscape:connector-curvature="0"
         d="M 306,0 C 137.012,0 0,137.012 0,306 0,474.988 137.012,612 306,612 474.988,612 612,474.988 612,306 612,137.012 474.988,0 306,0 Z m 0,554.625 C 168.912,554.625 57.375,443.088 57.375,306 57.375,168.912 168.912,57.375 306,57.375 443.088,57.375 554.625,168.912 554.625,306 554.625,443.088 443.088,554.625 306,554.625 Z"
         id="path2"
         sodipodi:nodetypes="ssssssssss" />
      <rect
         id="rect3805"
         width="306"
         height="53.789062"
         x="153"
         y="405.21091"
         style="stroke-width:0.97937518" />
    </g>
  </g>
</svg>
