<?xml version="1.0" encoding="UTF-8" standalone="no"?>
<svg
   xmlns:sketch="http://www.bohemiancoding.com/sketch/ns"
   xmlns:dc="http://purl.org/dc/elements/1.1/"
   xmlns:cc="http://creativecommons.org/ns#"
   xmlns:rdf="http://www.w3.org/1999/02/22-rdf-syntax-ns#"
   xmlns:svg="http://www.w3.org/2000/svg"
   xmlns="http://www.w3.org/2000/svg"
   xmlns:sodipodi="http://sodipodi.sourceforge.net/DTD/sodipodi-0.dtd"
   xmlns:inkscape="http://www.inkscape.org/namespaces/inkscape"
   viewBox="0 0 512 512"
   version="1.1"
   x="0px"
   y="0px"
   id="svg16"
   sodipodi:docname="MoreOptions.svg"
   width="512"
   height="512"
   inkscape:version="0.92.1 r15371">
  <metadata
     id="metadata22">
    <rdf:RDF>
      <cc:Work
         rdf:about="">
        <dc:format>image/svg+xml</dc:format>
        <dc:type
           rdf:resource="http://purl.org/dc/dcmitype/StillImage" />
        <dc:title>new_window</dc:title>
      </cc:Work>
    </rdf:RDF>
  </metadata>
  <defs
     id="defs20" />
  <sodipodi:namedview
     pagecolor="#ffffff"
     bordercolor="#666666"
     borderopacity="1"
     objecttolerance="10"
     gridtolerance="10"
     guidetolerance="10"
     inkscape:pageopacity="0"
     inkscape:pageshadow="2"
     inkscape:window-width="1440"
     inkscape:window-height="853"
     id="namedview18"
     showgrid="false"
     inkscape:zoom="1"
     inkscape:cx="115.78091"
     inkscape:cy="253.2766"
     inkscape:window-x="0"
     inkscape:window-y="0"
     inkscape:window-maximized="1"
     inkscape:current-layer="svg16" />
  <title
     id="title2">new_window</title>
  <desc
     id="desc4">Created with Sketch.</desc>
  <g
     sketch:type="MSPage"
     id="g10"
     style="fill:none;fill-rule:evenodd;stroke:none;stroke-width:1"
     transform="matrix(5.6,0,0,-5.6,-24,536)">
    <g
       sketch:type="MSLayerGroup"
       transform="translate(2,2)"
       id="g8"
       style="fill:#000000">
      <path
         d="M 73.788323,16 44.56401,45.224313 c -1.715534,1.715534 -1.718018,4.503944 2.89e-4,6.222251 1.71481,1.71481 4.504103,1.718436 6.222251,2.89e-4 L 80,22.233402 v 9.769759 C 80,34.20588 81.790861,36 84,36 c 2.204644,0 4,-1.789446 4,-3.996839 V 11.996839 C 88,10.896005 87.552712,9.8972231 86.829463,9.173436 86.105113,8.4484102 85.10633,8 84.003161,8 H 63.996839 C 61.79412,8 60,9.790861 60,12 c 0,2.204644 1.789446,4 3.996839,4 z M 88,56 V 36.985151 78.029699 C 88,83.536144 84.032788,88 79.132936,88 H 16.867063 C 11.96992,88 8,83.527431 8,78.029699 V 17.970301 C 8,12.463856 11.967212,8 16.867063,8 H 59.566468 40 c 2.209139,0 4,1.790861 4,4 0,2.209139 -1.790861,4 -4,4 H 18.277794 C 17.005287,16 16,17.194737 16,18.668519 V 77.331481 C 16,78.778664 17.019803,80 18.277794,80 H 77.722206 C 78.994713,80 80,78.805263 80,77.331481 V 56 c 0,-2.209139 1.790861,-4 4,-4 2.209139,0 4,1.790861 4,4 z"
         sketch:type="MSShapeGroup"
         id="path6"
         inkscape:connector-curvature="0" />
    </g>
  </g>
</svg>
